<?xml version="1.0" encoding="UTF-8"?>
<svg version="1.1" xmlns="http://www.w3.org/2000/svg" width="1024" height="1024">
<path d="M0 0 C337.92 0 675.84 0 1024 0 C1024 337.92 1024 675.84 1024 1024 C686.08 1024 348.16 1024 0 1024 C0 686.08 0 348.16 0 0 Z " fill="#FDFDFD" transform="translate(0,0)"/>
<path d="M0 0 C1.77974496 -0.00230826 3.55948897 -0.00548723 5.33923101 -0.00945449 C10.19886605 -0.01776091 15.05842198 -0.01369619 19.9180572 -0.00748205 C25.17102883 -0.00294149 30.42398721 -0.00994926 35.67695618 -0.01544189 C45.95531531 -0.02432044 56.23364518 -0.02242074 66.51200545 -0.01661661 C74.86780323 -0.01209407 83.22359283 -0.01148978 91.57939148 -0.01366425 C92.77005741 -0.01397071 93.96072334 -0.01427718 95.18747005 -0.01459293 C97.6065226 -0.0152324 100.02557515 -0.01588083 102.4446277 -0.01653811 C125.11133292 -0.0222369 147.77802194 -0.01569059 170.4447245 -0.00493738 C189.88051617 0.00399772 209.31628395 0.00244555 228.7520752 -0.0067749 C251.33942193 -0.0174855 273.92675449 -0.02168762 296.51410341 -0.01555037 C298.92410056 -0.0149133 301.3340977 -0.01428456 303.74409485 -0.01366425 C305.52259599 -0.01320142 305.52259599 -0.01320142 307.33702645 -0.01272924 C315.67974046 -0.01100467 324.02244546 -0.01391227 332.36515808 -0.01862335 C342.53647579 -0.02424095 352.70776265 -0.02269724 362.87907684 -0.01206186 C368.0654774 -0.00681701 373.25182656 -0.00472818 378.4382267 -0.01136017 C383.19154379 -0.01734629 387.94476214 -0.01400077 392.69807035 -0.00340506 C394.41189805 -0.0011823 396.12573419 -0.00228189 397.8395564 -0.00715664 C428.09996981 -0.08658471 455.28325155 8.90613095 478.16174316 29.25396729 C479.40891113 30.35804932 479.40891113 30.35804932 480.68127441 31.48443604 C500.9277173 50.51928076 512.41062181 77.86322471 513.3469398 105.46211886 C513.44693706 110.12720655 513.43850542 114.79176133 513.4291687 119.45767212 C513.4329133 121.25279226 513.43751801 123.04791078 513.44289935 124.84302676 C513.4550442 129.73601968 513.45487903 134.62894381 513.4525106 139.52194834 C513.45210027 144.81450339 513.46316184 150.10703701 513.47262573 155.39958191 C513.48918853 165.75253062 513.49473309 176.10545654 513.49585049 186.4584174 C513.49680295 194.87706289 513.50092311 203.2957009 513.50725174 211.71434402 C513.52484917 235.61143418 513.53409264 259.50850642 513.53259079 283.4056031 C513.53247092 285.33519669 513.53247092 285.33519669 513.53234863 287.30377197 C513.53226687 288.5917476 513.53218511 289.87972322 513.53210087 291.20672841 C513.5312878 312.08443489 513.55043483 332.96206925 513.57862537 353.83975486 C513.60737933 375.30490251 513.62116436 396.77001501 513.61943781 418.2351824 C513.61877491 430.27508889 513.62422378 442.31491972 513.64579391 454.35480881 C513.66403848 464.60357313 513.66832592 474.85222745 513.65477507 485.10100101 C513.64826277 490.32442564 513.64806542 495.54763944 513.66548157 500.77104378 C513.68129367 505.56282504 513.67826624 510.35422971 513.6609133 515.14600225 C513.65786131 516.86926524 513.66140697 518.59255692 513.67263345 520.31578605 C513.8512382 549.70288964 503.0748032 576.70380963 483.16174316 598.25396729 C482.49529785 599.00162354 481.82885254 599.74927979 481.14221191 600.51959229 C475.57380663 606.47485519 468.95346434 610.83814857 462.16174316 615.25396729 C461.2838916 615.86240479 460.40604004 616.47084229 459.50158691 617.09771729 C452.7855901 621.44976235 445.71686792 624.01452175 438.16174316 626.56646729 C436.66647095 627.0731897 436.66647095 627.0731897 435.14099121 627.59014893 C422.28317201 631.7531616 409.89576196 632.54610688 396.48843384 632.50793457 C394.71438942 632.5102423 392.94034595 632.51342091 391.16630447 632.51738906 C386.31774224 632.52570293 381.46925921 632.52162731 376.62069678 632.51541662 C371.38132182 632.51087908 366.14196018 632.51788239 360.90258789 632.52337646 C350.64848799 632.53225859 340.39441742 632.5303536 330.14031638 632.52455118 C321.80357269 632.52002956 313.46683719 632.51942396 305.13009262 632.52159882 C303.34848662 632.52205852 303.34848662 632.52205852 301.53088858 632.5225275 C299.11779722 632.52316697 296.70470587 632.5238154 294.29161452 632.52447268 C271.67591096 632.53017265 249.06022362 632.52362357 226.44452272 632.51287195 C207.05451906 632.50393906 187.66453936 632.50548698 168.27453613 632.51470947 C145.74138968 632.52542197 123.20825744 632.52962093 100.67510879 632.52348495 C98.27041428 632.52284787 95.86571976 632.52221913 93.46102524 632.52159882 C92.27796765 632.52129026 91.09491005 632.52098171 89.87600223 632.52066381 C81.55380722 632.51893964 73.23162125 632.52184603 64.90942764 632.52655792 C54.7608049 632.53217774 44.61221308 632.53062726 34.46359386 632.51999643 C29.28922791 632.51475419 24.11491346 632.51265822 18.94054794 632.51929474 C14.1970075 632.52528648 9.45356592 632.52192621 4.71003436 632.51133963 C3.00086958 632.50911919 1.29169632 632.51021113 -0.41746293 632.51509121 C-33.75221408 632.60291358 -61.87235124 622.8115951 -85.83825684 599.25396729 C-86.58462402 598.52049072 -87.33099121 597.78701416 -88.09997559 597.03131104 C-116.22299119 567.63220746 -117.46194608 530.77235335 -117.33183742 492.45085812 C-117.31853251 487.22119644 -117.32861259 481.99156861 -117.33560181 476.76190186 C-117.34562379 466.54970877 -117.33448236 456.33764644 -117.3159012 446.12546962 C-117.29501736 434.21503775 -117.2952766 422.30463329 -117.29624636 410.39418656 C-117.29724495 389.13843501 -117.27899394 367.88274391 -117.24987793 346.62701416 C-117.22168 326.0306488 -117.20753784 305.43433659 -117.2088623 284.83795166 C-117.20894222 283.56806725 -117.20902213 282.29818284 -117.20910446 280.98981708 C-117.20922553 279.08818289 -117.20922553 279.08818289 -117.20934904 277.14813185 C-117.2107304 253.64709105 -117.19894275 230.14607268 -117.1810426 206.64503917 C-117.17502476 198.35374669 -117.17288529 190.06245836 -117.171978 181.77116394 C-117.17061048 171.66564938 -117.16163537 161.56017269 -117.14331238 151.45467418 C-117.13411227 146.30441522 -117.12797215 141.1542045 -117.13050079 136.00393677 C-117.1327068 131.28174745 -117.12555798 126.55966447 -117.11120375 121.83749729 C-117.10760726 120.13739459 -117.10728668 118.43728079 -117.11073832 116.73717779 C-117.16594678 86.13604704 -109.4684255 59.47331675 -88.83825684 36.25396729 C-88.03774902 35.3529126 -87.23724121 34.45185791 -86.41247559 33.52349854 C-74.78935353 21.25359063 -58.59238524 10.06075141 -42.08435059 5.83209229 C-39.82974062 5.25177529 -37.70882737 4.49679529 -35.52575684 3.69146729 C-23.96471575 -0.12667634 -12.02283144 -0.03419741 0 0 Z " fill="#3E86ED" transform="translate(313.8382568359375,195.74603271484375)"/>
<path d="M0 0 C8.46958961 3.50278828 17.01151219 6.74605247 25.62890625 9.8671875 C26.24793257 10.09142521 26.86695889 10.31566292 27.50474358 10.54669571 C31.32523141 11.92978129 35.14763858 13.30749339 38.97058105 14.68377686 C41.57263283 15.62157341 44.17334555 16.56305207 46.77404022 17.50460434 C49.93336547 18.64804573 53.09364243 19.78884257 56.25390625 20.9296875 C57.96991028 21.55009918 57.96991028 21.55009918 59.72058105 22.18304443 C66.01781497 24.44915503 72.33317779 26.62926139 78.69950867 28.69389343 C81.53176914 29.67493699 84.26995257 30.79758486 87.0234375 31.98046875 C95.07248544 35.40612471 103.33758454 38.20361621 111.59765625 41.0703125 C113.18175821 41.62270979 114.76574315 42.17544278 116.34960938 42.72851562 C118.71190992 43.55323617 121.07433465 44.37758633 123.43728638 45.20043945 C129.42394412 47.28530097 135.40333477 49.39021029 141.37962341 51.5045929 C145.70254857 53.03323086 150.03107191 54.54468574 154.36328125 56.046875 C156.4623684 56.78348718 158.5613297 57.52045813 160.66015625 58.2578125 C161.73394531 58.62648438 162.80773437 58.99515625 163.9140625 59.375 C170.50849919 61.70727898 175.41054297 63.63339257 179.41015625 69.6328125 C179.85662802 73.5766465 179.63884386 76.08831818 178.09765625 79.7578125 C171.47510704 86.84240003 160.22615398 89.17788448 151.22265625 92.0703125 C142.75323752 94.84226703 134.36921332 97.69859685 126.05078125 100.89453125 C117.86448748 104.00200516 109.578219 106.84977858 101.32128906 109.76318359 C100.66380676 109.99543137 100.00632446 110.22767914 99.32891846 110.46696472 C97.52295618 111.10469856 95.71657016 111.7412321 93.91015625 112.37768555 C91.48041151 113.24901072 89.06307658 114.13591556 86.64916992 115.04858398 C81.65452026 116.93016189 76.62026956 118.69669068 71.5859375 120.46875 C69.48370302 121.2108782 67.38149017 121.95306764 65.27929688 122.6953125 C62.00620375 123.85003255 58.73291798 125.00419821 55.45922852 126.15722656 C39.88211025 131.63196895 39.88211025 131.63196895 24.43579102 137.46142578 C20.8550954 138.84770655 17.25489396 140.17468187 13.6484375 141.4921875 C12.67071129 141.84943405 12.67071129 141.84943405 11.67323303 142.21389771 C9.00406204 143.18800127 6.33417652 144.16013818 3.66430664 145.13232422 C1.67950057 145.85549078 -0.3047953 146.58004396 -2.2890625 147.3046875 C-3.45268311 147.7284668 -4.61630371 148.15224609 -5.81518555 148.58886719 C-8.49672145 149.54308404 -8.49672145 149.54308404 -10.58984375 150.6328125 C-16.46139618 151.183546 -21.26098955 150.41861725 -26.79296875 148.3125 C-27.49609192 148.05064911 -28.19921509 147.78879822 -28.92364502 147.51901245 C-30.54788918 146.91405681 -32.16996346 146.30325579 -33.7902832 145.68786621 C-38.1372063 144.04966719 -42.50605496 142.47236201 -46.87194824 140.88555908 C-52.70160886 138.7661649 -58.52353262 136.62564434 -64.34680176 134.48876953 C-66.33249919 133.76050615 -68.31852897 133.03315716 -70.3046875 132.30615234 C-86.10752781 126.52173201 -101.88452832 120.67816421 -117.58984375 114.6328125 C-117.58984375 113.6428125 -117.58984375 112.6528125 -117.58984375 111.6328125 C-113.27070993 110.28151471 -108.95144906 108.93062397 -104.63208008 107.58007812 C-103.16883065 107.12250226 -101.70561342 106.6648234 -100.24243164 106.20703125 C-95.35918556 104.67923694 -90.47500584 103.15446916 -85.58984375 101.6328125 C-84.46489502 101.2821875 -83.33994629 100.9315625 -82.1809082 100.5703125 C-73.86586082 97.99394494 -65.51454765 95.55027773 -57.15234375 93.1328125 C-55.18085665 92.56131754 -53.2094492 91.98954972 -51.23812866 91.41748047 C-49.93991578 91.04204483 -48.64111055 90.66865112 -47.34170532 90.29736328 C-44.12993353 89.37862434 -40.93063136 88.43263746 -37.74560547 87.42578125 C-35.91860107 86.86310547 -35.91860107 86.86310547 -34.0546875 86.2890625 C-32.97695068 85.94681641 -31.89921387 85.60457031 -30.78881836 85.25195312 C-26.48784737 84.4195283 -22.54907763 84.65319556 -18.58984375 86.6328125 C-13.74777797 87.12522597 -10.78903872 87.16727279 -6.71484375 84.3828125 C-4.22733546 82.34860869 -2.4100875 80.82264932 -1.58984375 77.6328125 C-1.25537001 73.41844332 -1.15109558 70.72968292 -2.71484375 66.8203125 C-5.50116799 63.56960088 -8.29225579 62.00886482 -12.546875 61.3125 C-17.67098408 61.01857405 -20.58074984 62.27636179 -24.58984375 65.6328125 C-25.02441895 66.29708252 -25.45899414 66.96135254 -25.90673828 67.64575195 C-28.11500266 70.25281081 -29.94431527 70.71489404 -33.20703125 71.67578125 C-34.35679443 72.0227002 -35.50655762 72.36961914 -36.69116211 72.72705078 C-37.93647705 73.08782715 -39.18179199 73.44860352 -40.46484375 73.8203125 C-41.76810806 74.20927496 -43.07091804 74.59976265 -44.37329102 74.99169922 C-47.08550419 75.80658637 -49.79956532 76.61483491 -52.51513672 77.41845703 C-58.87098641 79.30513447 -65.19761154 81.28554146 -71.52734375 83.2578125 C-72.73664551 83.63236572 -73.94594727 84.00691895 -75.19189453 84.39282227 C-81.52974469 86.35732353 -87.85495455 88.35550573 -94.16894531 90.39526367 C-104.22889688 93.6440579 -114.34575484 96.58705236 -124.55761719 99.32470703 C-125.56211914 99.59782715 -126.56662109 99.87094727 -127.6015625 100.15234375 C-128.49319092 100.39057861 -129.38481934 100.62881348 -130.3034668 100.87426758 C-132.82614135 101.59933262 -132.82614135 101.59933262 -135.58984375 103.6328125 C-136.08918083 105.82542768 -136.08918083 105.82542768 -136.07324219 108.40771484 C-136.10206482 109.4041098 -136.13088745 110.40050476 -136.1605835 111.42709351 C-136.17333313 112.51334015 -136.18608276 113.59958679 -136.19921875 114.71875 C-136.21631897 115.84487701 -136.23341919 116.97100403 -136.2510376 118.1312561 C-136.279451 120.53045168 -136.29901469 122.92976546 -136.31054688 125.32910156 C-136.33924453 128.93257067 -136.43202565 132.53058248 -136.52734375 136.1328125 C-136.72783312 150.86010829 -134.67162071 161.45824637 -127.66751099 174.38986206 C-123.52859015 183.00420423 -121.82712607 192.59003486 -124.58984375 201.8828125 C-126.94481246 207.33288295 -131.736566 211.24560917 -136.9921875 213.80078125 C-143.73299658 215.95986747 -150.69225545 215.45544207 -157.08984375 212.5078125 C-162.90409396 209.20934363 -165.38579065 204.80231678 -167.58984375 198.6328125 C-169.79213146 184.79317289 -162.33926054 168.52979892 -155.52078247 156.7925415 C-154.39430828 154.17918046 -154.34899631 152.24738598 -154.36279297 149.40527344 C-154.36301956 147.84410797 -154.36301956 147.84410797 -154.36325073 146.25140381 C-154.3735733 145.13461243 -154.38389587 144.01782104 -154.39453125 142.8671875 C-154.39736115 141.71865295 -154.40019104 140.57011841 -154.40310669 139.38677979 C-154.41430112 135.71868469 -154.43940471 132.0508338 -154.46484375 128.3828125 C-154.47487449 125.89583686 -154.48400017 123.40885739 -154.4921875 120.921875 C-154.51423807 114.82543752 -154.5477085 108.72914246 -154.58984375 102.6328125 C-163.32399076 99.17059383 -172.05727143 95.7462332 -180.953125 92.71875 C-181.61416229 92.49229797 -182.27519958 92.26584595 -182.95626831 92.03253174 C-185.62027418 91.1213773 -188.28488563 90.21297149 -190.95678711 89.32519531 C-192.96033964 88.65710621 -194.95686656 87.97077922 -196.953125 87.28125 C-198.11110596 86.89114746 -199.26908691 86.50104492 -200.4621582 86.09912109 C-204.5289813 84.19252992 -207.55821712 81.69606575 -209.58984375 77.6328125 C-210.2122293 74.48238669 -210.22593496 71.78334415 -209.58984375 68.6328125 C-204.75980122 62.32200992 -197.84278238 59.75424667 -190.54296875 57.35546875 C-189.47428558 56.98680695 -188.40560242 56.61814514 -187.30453491 56.23831177 C-183.8218262 55.04043364 -180.33102508 53.86823962 -176.83984375 52.6953125 C-173.18861257 51.44479248 -169.53977058 50.18745691 -165.89089966 48.93006897 C-163.4182526 48.07868085 -160.94483773 47.22951952 -158.47067261 46.3825531 C-146.66590709 42.3382277 -134.9336142 38.10634667 -123.21484375 33.8203125 C-121.44438695 33.1750716 -119.67388063 32.52996656 -117.90332031 31.88500977 C-110.23430266 29.0873389 -102.57856447 26.25850775 -94.94140625 23.375 C-89.44807451 21.3030238 -83.93242968 19.35677764 -78.33984375 17.5703125 C-72.39600235 15.63100295 -66.65318495 13.46395563 -60.91015625 10.984375 C-50.1619977 6.60924223 -39.03039402 3.04718895 -28 -0.54296875 C-25.55171345 -1.34719752 -25.55171345 -1.34719752 -23.08984375 -2.43359375 C-14.92094856 -5.48416555 -7.65267532 -3.27608737 0 0 Z " fill="#FCFDFD" transform="translate(527.58984375,266.3671875)"/>
<path d="M0 0 C0.87978516 0.48919922 0.87978516 0.48919922 1.77734375 0.98828125 C1.66777344 1.97441406 1.55820312 2.96054687 1.4453125 3.9765625 C1.37078857 4.64800293 1.29626465 5.31944336 1.21948242 6.01123047 C1.04450207 7.58454376 0.86884657 9.15778206 0.69262695 10.73095703 C0.16380287 15.46235368 -0.35141891 20.19475623 -0.84765625 24.9296875 C-2.30390553 38.65244533 -4.05309815 52.31359855 -5.98544312 65.97561646 C-7.89954852 79.5098852 -9.64266432 93.0581033 -11.30859375 106.625 C-11.89356201 111.38112728 -12.50069543 116.13324309 -13.13671875 120.8828125 C-13.27835449 121.94201904 -13.41999023 123.00122559 -13.56591797 124.0925293 C-13.82723192 126.03324812 -14.09162016 127.97355685 -14.35986328 129.91333008 C-14.94883365 134.29498799 -15.47759567 138.55516792 -15.22265625 142.98828125 C-13.98825346 144.44896915 -13.98825346 144.44896915 -10.23828125 144.14453125 C-6.23463214 144.10050054 -2.47683966 143.60860694 1.45898438 142.9206543 C62.65463076 132.61861154 135.97500415 145.11325241 187.15625 181.06640625 C188.45369141 182.01773438 188.45369141 182.01773438 189.77734375 182.98828125 C190.77636719 183.705 191.77539062 184.42171875 192.8046875 185.16015625 C200.31882788 190.65599663 207.28267491 196.63005771 213.96484375 203.109375 C217.93196985 206.86085816 217.93196985 206.86085816 222.96484375 208.73828125 C226.72067018 207.73672754 228.07315861 205.77709238 230.77734375 202.98828125 C252.1845629 182.96096402 277.28135689 167.20722651 304.77734375 156.98828125 C305.97762207 156.53678711 305.97762207 156.53678711 307.20214844 156.07617188 C317.69072048 152.19212901 328.30959649 149.21235862 339.21484375 146.73828125 C340.23642578 146.50415527 341.25800781 146.2700293 342.31054688 146.02880859 C361.532238 141.87284779 380.39778715 140.47716435 400.02734375 140.61328125 C401.69731918 140.61726929 401.69731918 140.61726929 403.40103149 140.62133789 C418.97862685 140.66497457 434.09911387 141.32474688 449.50537109 143.703125 C452.97281479 144.13832533 456.28662535 144.14785695 459.77734375 143.98828125 C461.19294997 142.7958874 461.19294997 142.7958874 460.96484375 139.36328125 C460.84281775 130.64520168 459.26672449 122.02509668 457.89453125 113.43359375 C455.66425236 99.40604778 453.82162266 85.37712698 452.21191406 71.26806641 C451.30537993 63.34417503 450.32738774 55.44014709 449.15234375 47.55078125 C447.97124688 39.60649876 447.04438182 31.66052794 446.2578125 23.66796875 C445.93329954 20.39516218 445.5544946 17.13379673 445.140625 13.87109375 C445.0382251 13.04182373 444.9358252 12.21255371 444.83032227 11.3581543 C444.63249631 9.76996736 444.42632088 8.18279192 444.21069336 6.59692383 C443.98367136 4.73559776 443.8702456 2.8610981 443.77734375 0.98828125 C445.77734375 -1.01171875 445.77734375 -1.01171875 448.90234375 -1.32421875 C455.41003151 -0.79940522 459.93205486 0.70915713 464.58984375 5.42578125 C471.02659556 13.6437894 471.57041751 25.78975689 473.30078125 35.80859375 C473.64965491 37.79351465 473.99853095 39.77843514 474.34752846 41.76333427 C474.831324 44.52096861 475.3112311 47.27927369 475.79107666 50.03759766 C476.85125183 56.12890316 477.91862212 62.21894743 478.98828125 68.30859375 C479.10430443 68.97017738 479.22032761 69.63176102 479.33986664 70.31339264 C481.15786796 80.66670312 483.08085217 90.99696284 485.10995483 101.31106567 C486.45757609 108.18495498 487.65703514 115.07382883 488.77734375 121.98828125 C488.98278809 123.24189453 489.18823242 124.49550781 489.39990234 125.78710938 C489.57344238 126.85380859 489.74698242 127.92050781 489.92578125 129.01953125 C490.33408444 131.50920501 490.74295576 133.99878564 491.15234375 136.48828125 C491.3127565 137.46790329 491.3127565 137.46790329 491.47640991 138.46731567 C492.82280153 146.66667955 494.33007127 154.8048706 496.08984375 162.92578125 C498.22137286 173.03685439 500.17774212 183.65555396 494.77734375 192.98828125 C491.24599985 198.03305825 487.83853114 201.38569256 481.77734375 202.98828125 C471.14634199 204.26209669 461.37428269 202.51192011 451.03588867 200.05786133 C441.91678238 197.91356367 432.74772109 196.53201406 423.47314453 195.24511719 C422.38243652 195.09333008 421.29172852 194.94154297 420.16796875 194.78515625 C419.19891602 194.65463867 418.22986328 194.52412109 417.23144531 194.38964844 C414.77734375 193.98828125 414.77734375 193.98828125 411.77734375 192.98828125 C406.46360715 192.17025453 401.11918232 191.58989259 395.77734375 190.98828125 C394.96797363 190.89369629 394.15860352 190.79911133 393.32470703 190.70166016 C344.99298982 185.16864141 290.22366037 190.53143849 250.671875 221.64453125 C248.04067879 223.84374002 245.6764598 226.09692551 243.33984375 228.61328125 C236.32300645 235.11669143 228.10104917 236.63352894 218.765625 236.37890625 C209.87184685 235.77565022 203.62702807 231.1398053 197.71484375 224.80078125 C179.92517567 206.0157085 150.32682854 197.62300148 125.77734375 192.80078125 C124.5140625 192.54103516 123.25078125 192.28128906 121.94921875 192.01367188 C113.89077415 190.40944448 105.98323396 189.38482621 97.77734375 188.98828125 C96.89159668 188.94340576 96.00584961 188.89853027 95.09326172 188.85229492 C75.82419508 188.08526671 56.84283697 190.5240375 37.77734375 192.98828125 C37.10350647 193.07505127 36.42966919 193.16182129 35.7354126 193.2512207 C18.88243188 195.43254529 2.15333787 198.11969456 -14.46484375 201.68359375 C-23.47358342 203.53756626 -34.30515866 205.30933129 -42.54296875 200.32421875 C-47.14915237 196.66069596 -50.41087432 192.62400844 -52.22265625 186.98828125 C-52.92698255 178.44086378 -52.05363902 169.83579961 -50.30859375 161.46484375 C-49.13313221 155.66227023 -48.17180604 149.83148466 -47.22265625 143.98828125 C-46.17196037 137.51993471 -45.06620751 131.07971612 -43.75390625 124.65917969 C-42.66000736 119.15952259 -41.70320211 113.63405155 -40.72265625 108.11328125 C-40.50996094 106.92347656 -40.29726562 105.73367188 -40.078125 104.5078125 C-38.91531036 97.9803561 -37.79242251 91.44796066 -36.70996094 84.90673828 C-35.23785978 76.09035691 -33.64298464 67.29528398 -32.04248047 58.50146484 C-31.44836465 55.23698073 -30.86006476 51.97149191 -30.27392578 48.70556641 C-29.42285317 43.97177258 -28.55638813 39.24097504 -27.68145752 34.51153564 C-27.33587169 32.63163127 -26.99479418 30.75089215 -26.65838623 28.86932373 C-26.18047971 26.20210228 -25.68586936 23.53846353 -25.1875 20.875 C-25.04901138 20.08124466 -24.91052277 19.28748932 -24.76783752 18.46968079 C-23.64465887 12.60821869 -21.82844495 7.48759686 -17.40625 3.24609375 C-16.83003906 2.87226563 -16.25382812 2.4984375 -15.66015625 2.11328125 C-15.08136719 1.72398437 -14.50257813 1.3346875 -13.90625 0.93359375 C-9.58255698 -1.49409467 -4.56381228 -2.07737677 0 0 Z " fill="#FCFCFD" transform="translate(289.22265625,484.01171875)"/>
<path d="M0 0 C1.07330566 -0.01313232 2.14661133 -0.02626465 3.25244141 -0.03979492 C4.25710449 -0.04084229 5.26176758 -0.04188965 6.296875 -0.04296875 C7.20276367 -0.04707764 8.10865234 -0.05118652 9.04199219 -0.05541992 C11.25 0.1875 11.25 0.1875 13.25 2.1875 C13.7421175 4.62588105 14.12173224 6.99447085 14.43359375 9.45703125 C14.58351524 10.56532036 14.58351524 10.56532036 14.73646545 11.69599915 C15.062581 14.12955668 15.37552168 16.56459262 15.6875 19 C15.91123502 20.70234056 16.1351955 22.40465151 16.359375 24.10693359 C17.77403858 34.95821728 19.00972664 45.81985681 20.08569336 56.71020508 C21.10019643 66.94042308 22.2414247 77.15355386 23.42358398 87.36566162 C23.63645408 89.20590527 23.84825643 91.04627284 24.05883789 92.88677979 C25.29028329 103.63857033 26.64654015 114.3601114 28.24450684 125.06420898 C29.27782218 132.05581264 30.20433818 139.10991718 30.25 146.1875 C29.25 147.1875 29.25 147.1875 27.46484375 147.3203125 C26.71332031 147.31773437 25.96179688 147.31515625 25.1875 147.3125 C24.45402344 147.31507813 23.72054687 147.31765625 22.96484375 147.3203125 C20.25 147.1875 20.25 147.1875 16.56640625 146.68969727 C12.52483145 146.17624283 8.54969005 146.04290038 4.47265625 146.01953125 C3.75291122 146.01525116 3.0331662 146.01097107 2.29161072 146.00656128 C-0.03482345 145.99660184 -2.36104857 145.99650853 -4.6875 146 C-5.48889404 146.00093658 -6.29028809 146.00187317 -7.1159668 146.00283813 C-52.83509509 146.11833071 -96.12843579 154.79826929 -136.75 176.1875 C-137.7090625 176.67734375 -138.668125 177.1671875 -139.65625 177.671875 C-153.40949512 184.87210333 -168.2081137 194.2071806 -178.95703125 205.5078125 C-180.75 207.1875 -180.75 207.1875 -183.75 207.1875 C-183.93736063 191.60121754 -184.07818749 176.01524194 -184.16449738 160.42811108 C-184.20564842 153.1897269 -184.26169196 145.95204472 -184.35351562 138.71411133 C-184.43356518 132.40122283 -184.4849385 126.08884299 -184.50270796 119.77546102 C-184.51308747 116.4357687 -184.54152584 113.09867645 -184.59584045 109.75923729 C-184.65422167 106.01986093 -184.66189993 102.2834625 -184.65820312 98.54370117 C-184.68696533 97.45180984 -184.71572754 96.35991852 -184.74536133 95.23493958 C-184.65275407 86.53418207 -181.35783267 81.65584874 -175.75 75.1875 C-174.98333385 74.26643857 -174.98333385 74.26643857 -174.2011795 73.32676983 C-168.87980875 67.08429224 -163.06491068 61.41123126 -156.75 56.1875 C-155.904375 55.44242188 -155.05875 54.69734375 -154.1875 53.9296875 C-112.4350746 17.73668831 -54.56557807 0.42949219 0 0 Z " fill="#FDFDFD" transform="translate(702.75,460.8125)"/>
<path d="M0 0 C1.07958984 -0.00128906 2.15917969 -0.00257813 3.27148438 -0.00390625 C4.41037109 -0.00003906 5.54925781 0.00382812 6.72265625 0.0078125 C7.82673828 0.00394531 8.93082031 0.00007813 10.06835938 -0.00390625 C16.70253282 0.00393093 23.20039573 0.31611244 29.78515625 1.1328125 C29.94371094 1.82246094 30.10226562 2.51210938 30.265625 3.22265625 C32.98210084 14.16360038 37.35295895 23.51312142 47.2109375 29.640625 C52.04745682 32.20933784 56.25841977 33.84694682 61.78515625 34.1328125 C62.6565625 34.20628906 63.52796875 34.27976562 64.42578125 34.35546875 C73.81672677 34.83484948 82.2306685 32.74330145 89.6875 26.83203125 C91.38449304 25.26960153 93.04802032 23.66945685 94.6640625 22.0234375 C97.80557954 19.22326394 97.80557954 19.22326394 100.78515625 19.1328125 C103.38526618 19.91314677 105.73715384 20.76274374 108.22265625 21.8203125 C108.95911377 22.1299292 109.69557129 22.4395459 110.4543457 22.75854492 C134.29356893 33.1489836 155.13583245 48.49378817 173.59765625 66.6328125 C174.19570068 67.21313232 174.79374512 67.79345215 175.40991211 68.39135742 C183.02537462 76.01942657 189.66202838 83.02060493 189.78051758 94.24371338 C189.75175537 95.34495544 189.72299316 96.44619751 189.69335938 97.58081055 C189.69452759 98.77235245 189.6956958 99.96389435 189.69689941 101.19154358 C189.69231742 104.4233355 189.65252742 107.65226651 189.59630775 110.88349509 C189.54590634 114.27325973 189.54156761 117.66309534 189.53210449 121.05317688 C189.50735241 127.45654839 189.44186112 133.85881229 189.36130857 140.26169854 C189.27153257 147.55790905 189.22781468 154.85417567 189.18774509 162.15080202 C189.10438129 177.14542003 188.96389324 192.13900489 188.78515625 207.1328125 C185.18166888 205.42491956 182.54870412 203.32585359 179.53515625 200.6953125 C133.02392985 161.12486945 71.73991426 146.13726673 11.84765625 145.8828125 C11.0692337 145.8773642 10.29081116 145.87191589 9.48880005 145.86630249 C-0.23044176 145.81560189 -9.54812584 146.37154057 -19.15454102 147.89941406 C-20.66939087 148.01494629 -20.66939087 148.01494629 -22.21484375 148.1328125 C-24.21484375 146.1328125 -24.21484375 146.1328125 -24.26171875 143.0078125 C-24.16375 141.7290625 -24.06578125 140.4503125 -23.96484375 139.1328125 C-23.91255615 138.44856201 -23.86026855 137.76431152 -23.80639648 137.05932617 C-23.43573515 132.63693502 -22.72634051 128.43087595 -21.75 124.11328125 C-20.84007611 119.04560296 -20.44611517 113.91703913 -20.00024414 108.7902832 C-19.58963826 104.25472978 -19.016816 99.80323283 -18.23046875 95.31640625 C-17.12817924 88.92231358 -16.52960619 82.53085925 -15.96484375 76.0703125 C-14.68302968 62.20691945 -13.16101466 48.37415263 -11.55505371 34.54470825 C-11.28733794 32.23498013 -11.02194356 29.92498172 -10.75891113 27.61471558 C-10.38496607 24.3373862 -10.00232405 21.06118705 -9.6171875 17.78515625 C-9.50577927 16.7988623 -9.39437103 15.81256836 -9.27958679 14.79638672 C-7.50828117 0.00865508 -7.50828117 0.00865508 0 0 Z " fill="#FDFDFD" transform="translate(315.21484375,460.8671875)"/>
<path d="M0 0 C3.1779031 2.93956037 4.80439389 5.70371913 5.17700195 10.07788086 C5.65830377 28.82564115 2.96408862 42.26142934 -9.96069336 56.63330078 C-16.35106012 63.35855699 -23.29566553 67.25250154 -31.70751953 70.98291016 C-61.98561139 84.41619351 -90.42079192 101.50610266 -111 128 C-112 129 -112 129 -114.33520508 129.27514648 C-117.67557708 128.93024504 -118.43791427 128.07844481 -120.63671875 125.59765625 C-121.61813843 124.51605225 -121.61813843 124.51605225 -122.61938477 123.41259766 C-123.30186279 122.63706543 -123.98434082 121.8615332 -124.6875 121.0625 C-126.12488795 119.48580073 -127.56497688 117.9115594 -129.0078125 116.33984375 C-129.69907227 115.58300293 -130.39033203 114.82616211 -131.10253906 114.04638672 C-146.5344361 97.4032883 -167.04071873 85.53050864 -187.08984375 75.34741211 C-196.71685095 70.45665743 -205.54009901 65.3207507 -210 55 C-210.6526905 52.84745339 -211.25498697 50.67913768 -211.8125 48.5 C-213.19357377 43.37874201 -214.94728078 38.83590149 -217.25 34.0625 C-220.93137747 25.81658632 -221.57943209 17.45096684 -219.0390625 8.68359375 C-217.35517156 4.33459722 -217.35517156 4.33459722 -215 3 C-209.38170712 3.40146804 -204.61578691 4.64014964 -199.3984375 6.7734375 C-198.69181976 7.05305328 -197.98520203 7.33266907 -197.25717163 7.62075806 C-195.74455286 8.22013492 -194.23352671 8.82354435 -192.72399902 9.43066406 C-188.71175971 11.04364973 -184.68734472 12.62574429 -180.6640625 14.2109375 C-179.85114746 14.53205505 -179.03823242 14.85317261 -178.20068359 15.184021 C-170.42814356 18.2457485 -162.60168109 21.14843666 -154.75 24 C-153.52095947 24.44698242 -152.29191895 24.89396484 -151.02563477 25.35449219 C-148.72023798 26.19224351 -146.41466655 27.02951446 -144.10888672 27.86621094 C-138.63649814 29.86195246 -133.18663475 31.91631079 -127.73828125 33.9765625 C-115.23624525 38.64922075 -104.46444966 34.9737985 -92.625 30.375 C-91.06768858 29.78868512 -89.5094785 29.20475234 -87.95043945 28.62304688 C-84.66549115 27.39581459 -81.38425393 26.15930297 -78.10498047 24.91699219 C-70.33980157 21.98727883 -62.52392902 19.19791832 -54.70941162 16.40313721 C-52.25828691 15.52534993 -49.80886476 14.64296869 -47.35986328 13.75927734 C-38.99913759 10.7483711 -30.61883534 7.83599211 -22.16674805 5.09106445 C-19.24476254 4.08432995 -16.44665394 2.94445228 -13.625 1.6875 C-9.11814557 -0.14528747 -4.82122515 -1.16102973 0 0 Z " fill="#FCFDFD" transform="translate(627,396)"/>
<path d="M0 0 C4.99909816 1.6293357 9.97823059 3.31563333 14.9375 5.0625 C16.31228516 5.54396484 16.31228516 5.54396484 17.71484375 6.03515625 C20 7 20 7 22 9 C16.73097127 8.45142503 12.5293797 7.20097686 7.625 5.0625 C6.99722656 4.79759766 6.36945313 4.53269531 5.72265625 4.25976562 C1.13065045 2.2613009 1.13065045 2.2613009 0 0 Z " fill="#6A78E6" transform="translate(257,815)"/>
<path d="M0 0 C0.66 0.33 1.32 0.66 2 1 C1.0479279 2.00596297 0.08812654 3.00461563 -0.875 4 C-1.40867187 4.556875 -1.94234375 5.11375 -2.4921875 5.6875 C-4 7 -4 7 -6 7 C-6.33 7.99 -6.66 8.98 -7 10 C-7.99 9.67 -8.98 9.34 -10 9 C-8.71142987 7.68445979 -7.41904109 6.37265903 -6.125 5.0625 C-5.04605469 3.96615234 -5.04605469 3.96615234 -3.9453125 2.84765625 C-2 1 -2 1 0 0 Z " fill="#4E91EE" transform="translate(534,504)"/>
</svg>
